<?xml version="1.0" encoding="UTF-8"?>
<!DOCTYPE svg PUBLIC "-//W3C//DTD SVG 1.1//EN" "http://www.w3.org/Graphics/SVG/1.1/DTD/svg11.dtd">
<!-- Creator: CorelDRAW 2021 (64-Bit) -->
<svg xmlns="http://www.w3.org/2000/svg" xml:space="preserve" width="8.26772in" height="5.82677in" version="1.1" style="shape-rendering:geometricPrecision; text-rendering:geometricPrecision; image-rendering:optimizeQuality; fill-rule:evenodd; clip-rule:evenodd"
viewBox="0 0 8267.72 5826.77"
 xmlns:xlink="http://www.w3.org/1999/xlink"
 xmlns:xodm="http://www.corel.com/coreldraw/odm/2003">
 <defs>
  <style type="text/css">
   <![CDATA[
    .fil1 {fill:#89BF1C}
    .fil2 {fill:#F0E000}
    .fil0 {fill:#144D24;fill-rule:nonzero}
    .fil3 {fill:#144D24;fill-rule:nonzero}
   ]]>
  </style>
 </defs>
 <g id="Layer_x0020_1">
  <metadata id="CorelCorpID_0Corel-Layer"/>
  <g id="_1474822768384">
   <path class="fil0" d="M4045.93 2351.8c-117.62,-114.88 -270.8,-172.32 -459.53,-172.32 -194.21,0 -351.49,48.55 -471.84,145.65 -120.35,97.09 -289.93,242.76 -352.84,436.96l0 0 -57.44 -533.37 -320.02 0 0 2051.45 397.98 0 0 -746.72c0,-352.85 56.76,-604.5 170.27,-754.94 113.51,-150.44 263.27,-225.66 449.27,-225.66 136.76,0 241.39,39.66 313.87,118.99 72.48,79.32 108.72,191.46 108.72,336.44l0 1271.9 397.98 0 0 -1448.33c0,-205.15 -58.8,-365.16 -176.42,-480.04z"/>
   <path class="fil0" d="M2012.13 2454.37c-165.48,-183.26 -389.09,-274.89 -670.83,-274.89 -205.14,0 -383.62,47.87 -535.43,143.6 -151.81,95.73 -267.37,227.71 -346.69,395.93 -79.33,168.22 -118.99,361.74 -118.99,580.56 0,322.76 85.48,575.09 256.43,756.99 170.96,181.9 413.71,272.84 728.27,272.84 237.97,0 432.85,-51.96 584.66,-155.91 151.81,-103.94 252.33,-246.18 301.57,-426.7l-303.62 -98.47c-46.5,114.88 -114.88,202.41 -205.14,262.58 -90.27,60.18 -207.89,90.27 -352.85,90.27 -164.12,0 -299.51,-51.97 -406.19,-155.91 -106.68,-103.94 -169.59,-251.64 -188.73,-443.11l1497.56 0c5.47,-43.76 8.2,-108.05 8.2,-192.84 0,-320.02 -82.74,-571.67 -248.23,-754.94zm-1060.6 203.1c103.94,-108.05 232.5,-162.07 385.67,-162.07 169.59,0 299.51,54.7 389.78,164.12 90.26,109.41 138.13,261.22 143.6,455.43l-1111.89 0c24.61,-196.94 88.89,-349.43 192.83,-457.48z"/>
   <path class="fil1" d="M7921.91 1843.66c-324.74,846.85 -929.35,1226.05 -1701.04,1076.84 394.12,-969.94 1169.09,-1133.31 1701.04,-1076.84z"/>
   <path class="fil2" d="M5805.5 1503.93c393.61,183.7 647.11,438.35 751.52,743.67 -122.05,118 -234.9,265.61 -332.21,448.8 -433.31,-365.18 -480.65,-848.06 -419.31,-1192.47z"/>
   <path class="fil3" d="M6925.73 4142.94c-155.91,79.32 -335.07,118.98 -537.48,118.98 -320.03,0 -573.04,-95.73 -759.04,-287.2 -186,-191.48 -279,-465 -279,-820.59 0,-216.09 45.82,-402.77 137.45,-560.05 85.08,-146.04 198.46,-259.64 340.15,-340.82 42.17,110.36 100.68,212.7 172.59,304.09 -23.79,19.6 -46.31,41.41 -67.57,65.45 -114.88,129.93 -172.32,316.61 -172.32,560.06 0,240.7 56.76,425.34 170.27,553.89 113.52,128.56 266,192.84 457.48,192.84 191.46,0 343.27,-64.28 455.42,-192.84 112.15,-128.55 168.22,-313.19 168.22,-553.89 0,-81.93 -6.43,-157.4 -19.29,-226.47 132.77,-39.32 255.69,-101.41 364.14,-181.8 46.36,132.9 69.55,282.67 69.55,449.29 0,221.56 -44.45,410.3 -133.34,566.2 -88.9,155.91 -211.3,273.52 -367.22,352.85z"/>
   <path class="fil3" d="M5827.81 2253.26c-189.01,-162.02 -636.57,-96.85 -804.38,112.89 -103.94,129.93 -247.55,297.47 -274.89,502.61l0 0 -41.03 -648.26 -320.03 0 0 2051.46 397.98 0 0 -631.85c0,-229.76 25.3,-426.7 75.9,-590.82 50.6,-164.12 121.04,-288.57 211.3,-373.37 90.27,-84.79 191.47,-127.19 303.62,-127.19 71.12,0 136.07,15.73 194.89,47.18 58.8,31.46 101.88,64.96 129.24,100.52l127.4 -443.18z"/>
  </g>
 </g>
</svg>
