<?xml version="1.0" encoding="UTF-8"?>
<!DOCTYPE svg PUBLIC "-//W3C//DTD SVG 1.1//EN" "http://www.w3.org/Graphics/SVG/1.1/DTD/svg11.dtd">
<!-- Creator: CorelDRAW 2021 (64-Bit) -->
<svg xmlns="http://www.w3.org/2000/svg" xml:space="preserve" width="10.08in" height="6.54666in" version="1.1" style="shape-rendering:geometricPrecision; text-rendering:geometricPrecision; image-rendering:optimizeQuality; fill-rule:evenodd; clip-rule:evenodd"
viewBox="0 0 10079.99 6546.66"
 xmlns:xlink="http://www.w3.org/1999/xlink"
 xmlns:xodm="http://www.corel.com/coreldraw/odm/2003">
 <defs>
  <style type="text/css">
   <![CDATA[
    .fil0 {fill:#32A365;fill-rule:nonzero}
   ]]>
  </style>
 </defs>
 <g id="Layer_x0020_1">
  <metadata id="CorelCorpID_0Corel-Layer"/>
  <g id="_2580461954064">
   <path class="fil0" d="M3947.65 4161l2864.53 -1186.53c18.12,-7.48 38.14,-0.79 44.65,14.96 1.47,3.52 2.12,7.15 2.08,10.82l0 554.64c0.04,13.84 -9.92,26.53 -23.69,31.96l-2670.58 1106.22c-18.12,7.48 -38.11,0.75 -44.69,-14.92l-196.36 -473.71c-6.54,-15.82 2.88,-34.8 21.07,-42.31l2.98 -1.12z"/>
   <path class="fil0" d="M3591.49 3340.23l3220.54 -1334c18.19,-7.51 38.29,-0.79 44.83,14.99 1.76,4.31 2.37,8.88 1.94,13.33l0 552.23c0.04,13.63 -9.6,26.1 -23.04,31.67l-3024.26 1252.82c-18.19,7.52 -38.25,0.83 -44.83,-14.99l-196.22 -473.75c-6.58,-15.81 2.84,-34.8 21.03,-42.31z"/>
   <path class="fil0" d="M3238.46 2518.27l3573.57 -1480.24c18.19,-7.51 38.29,-0.83 44.83,14.99 1.76,4.28 2.37,8.84 1.94,13.33l0 552.23c0.04,13.84 -9.92,26.53 -23.69,32l-3376.71 1398.6c-18.12,7.48 -38.18,0.79 -44.69,-14.96l-196.22 -473.75c-6.5,-15.71 2.88,-34.62 20.96,-42.2z"/>
   <path class="fil0" d="M4297.84 4984.22l2514.34 -1041.47c18.12,-7.48 38.14,-0.75 44.65,14.96 1.47,3.52 2.12,7.15 2.08,10.86l0 554.63c0.04,13.63 -9.6,26.1 -23.04,31.67l-2318.09 960.33c-18.19,7.52 -38.29,0.79 -44.83,-14.99l-196.11 -473.89c-6.5,-15.71 2.88,-34.62 21,-42.1z"/>
  </g>
 </g>
</svg>
