<?xml version="1.0" encoding="UTF-8"?>
<!DOCTYPE svg PUBLIC "-//W3C//DTD SVG 1.1//EN" "http://www.w3.org/Graphics/SVG/1.1/DTD/svg11.dtd">
<!-- Creator: CorelDRAW 2021 (64-Bit) -->
<svg xmlns="http://www.w3.org/2000/svg" xml:space="preserve" width="10.08in" height="6.54666in" version="1.1" style="shape-rendering:geometricPrecision; text-rendering:geometricPrecision; image-rendering:optimizeQuality; fill-rule:evenodd; clip-rule:evenodd"
viewBox="0 0 10079.99 6546.66"
 xmlns:xlink="http://www.w3.org/1999/xlink"
 xmlns:xodm="http://www.corel.com/coreldraw/odm/2003">
 <defs>
  <style type="text/css">
   <![CDATA[
    .fil1 {fill:#32A365}
    .fil0 {fill:#32A365;fill-rule:nonzero}
   ]]>
  </style>
 </defs>
 <g id="Layer_x0020_1">
  <metadata id="CorelCorpID_0Corel-Layer"/>
  <g id="_2543982084464">
   <path class="fil0" d="M1277.43 3582.55l990.92 -410.45c6.27,-2.59 13.19,-0.28 15.44,5.17 0.51,1.22 0.74,2.47 0.72,3.74l0 191.87c0.02,4.79 -3.43,9.18 -8.19,11.06l-923.82 382.67c-6.27,2.59 -13.19,0.26 -15.46,-5.16l-67.93 -163.87c-2.26,-5.47 1,-12.04 7.29,-14.64l1.03 -0.39z"/>
   <path class="fil0" d="M1154.23 3298.62l1114.07 -461.46c6.3,-2.6 13.24,-0.28 15.51,5.19 0.61,1.49 0.82,3.07 0.67,4.61l0 191.03c0.01,4.71 -3.32,9.03 -7.97,10.95l-1046.17 433.39c-6.29,2.6 -13.23,0.28 -15.51,-5.19l-67.87 -163.88c-2.28,-5.47 0.98,-12.04 7.28,-14.64z"/>
   <path class="fil0" d="M1032.11 3014.28l1236.19 -512.06c6.3,-2.6 13.24,-0.28 15.51,5.19 0.61,1.48 0.82,3.06 0.67,4.61l0 191.03c0.01,4.79 -3.43,9.18 -8.2,11.07l-1168.09 483.81c-6.27,2.59 -13.21,0.28 -15.46,-5.17l-67.88 -163.88c-2.25,-5.43 1,-11.98 7.25,-14.6z"/>
   <path class="fil0" d="M1398.57 3867.32l869.78 -360.28c6.27,-2.59 13.19,-0.26 15.44,5.17 0.51,1.22 0.74,2.48 0.72,3.76l0 191.87c0.02,4.71 -3.32,9.03 -7.97,10.96l-801.89 332.2c-6.29,2.6 -13.24,0.28 -15.51,-5.19l-67.84 -163.93c-2.25,-5.43 1,-11.97 7.26,-14.56z"/>
  </g>
  <g id="_2543982080096">
   <path class="fil1" d="M4134.4 3004.97c217.23,0 393.3,176.07 393.3,393.31 0,217.23 -176.07,393.3 -393.3,393.3 -217.23,0 -393.31,-176.07 -393.31,-393.3 0,-217.23 176.07,-393.31 393.31,-393.31zm0 169.01c124.45,0 225.34,100.89 225.34,225.35 0,124.46 -100.89,225.34 -225.34,225.34 -124.46,0 -225.35,-100.89 -225.35,-225.34 0,-124.46 100.89,-225.35 225.35,-225.35z"/>
   <polygon class="fil0" points="2677.36,3791.58 2677.36,2734.76 3365.8,2734.76 3365.8,2905.18 2881.17,2905.18 2881.17,3169.97 3269.17,3169.97 3269.17,3341.68 2881.17,3341.68 2881.17,3791.58 "/>
   <polygon class="fil0" points="3449.39,3791.58 3449.39,2734.76 3653.2,2734.76 3653.2,3791.58 "/>
   <path class="fil0" d="M4998.93 3791.58c-75.46,0 -142.49,-16.88 -201.09,-50.64 -58.59,-33.77 -104.26,-79.95 -137.04,-138.53 -32.76,-58.59 -49.15,-125.62 -49.15,-201.09 0,-77.46 16.39,-145.74 49.15,-204.81 32.78,-59.09 78.45,-105.76 137.04,-140.01 58.59,-34.27 125.62,-51.4 201.09,-51.4 96.32,0 177.27,25.32 242.79,75.97 65.54,50.64 107.25,120.14 125.13,208.53l-213 0c-8.94,-34.76 -27.56,-62.06 -55.85,-81.91 -28.31,-19.87 -61.83,-29.8 -100.55,-29.8 -34.76,0 -65.79,8.68 -93.09,26.06 -27.32,17.38 -48.66,42.7 -64.06,75.96 -15.38,33.28 -23.09,72.74 -23.09,118.43 0,34.76 4.47,65.79 13.4,93.09 8.94,27.32 21.36,50.66 37.25,70.02 15.88,19.36 34.99,34.02 57.34,43.94 22.35,9.94 46.43,14.91 72.24,14.91 25.81,0 49.4,-4.47 70.76,-13.42 21.34,-8.93 39.46,-21.59 54.37,-37.98 14.89,-16.39 25.32,-36.49 31.28,-60.33l213 0c-17.88,86.39 -59.83,155.17 -125.87,206.3 -66.04,51.15 -146.72,76.72 -242.05,76.72z"/>
   <polygon class="fil0" points="5449.39,3791.58 5449.39,2734.76 5653.2,2734.76 5653.2,3791.58 "/>
   <polygon class="fil0" points="5947.61,3791.58 5627.67,3395.78 5778.52,3395.78 5848.48,3395.78 6201.26,3791.58 "/>
   <polygon class="fil0" points="7150.49,3791.58 7150.49,3060.07 7354.3,3060.07 7354.3,3791.58 "/>
   <polygon class="fil0" points="7462.37,3791.58 7462.37,2734.76 7666.19,2734.76 7666.19,3791.58 "/>
   <path class="fil0" d="M8911.33 3791.58c-53.35,0 -99.89,-8.3 -139.66,-24.91 -39.75,-16.61 -70.72,-44.28 -92.85,-83.05 -22.13,-38.73 -33.21,-91.84 -33.21,-159.28l0 -337.24 -129.83 0 0 -170.61 129.83 0 22.63 -192.67 181.18 0 0 192.67 200.8 0 0 170.61 -200.8 0 0 340.28c0,34.21 7.55,57.88 22.65,70.96 15.07,13.08 40.75,19.62 76.99,19.62l99.64 0 0 173.62 -137.38 0z"/>
   <polygon class="fil0" points="5947.61,3014.29 5627.67,3410.09 5778.52,3410.09 5848.48,3410.09 6201.26,3014.29 "/>
   <circle class="fil1" cx="7252.39" cy="2859.92" r="125.16"/>
   <path class="fil0" d="M6286.17 3791.59l0 -1054.68 394.74 0c85.39,0 156.2,14.56 212.44,43.69 56.25,29.13 97.93,68.3 125.06,117.52 27.12,49.22 40.68,105.47 40.68,168.74 0,58.26 -13.06,112 -39.17,161.22 -26.12,49.22 -67.29,89.14 -123.55,119.78 -56.25,30.63 -128.07,45.95 -215.46,45.95l-191.34 0 0 397.77 -203.41 0zm203.41 -562l179.29 0c65.29,0 112.25,-14.81 140.88,-44.44 28.63,-29.63 42.94,-69.06 42.94,-118.28 0,-52.23 -14.31,-92.66 -42.94,-121.29 -28.63,-28.61 -75.59,-42.93 -140.88,-42.93l-179.29 0 0 326.94z"/>
   <path class="fil1" d="M8146.73 3004.97c217.23,0 393.31,176.07 393.31,393.31 0,217.23 -176.07,393.3 -393.31,393.3 -217.23,0 -393.3,-176.07 -393.3,-393.3 0,-217.23 176.07,-393.31 393.3,-393.31zm0 169.01c124.46,0 225.35,100.89 225.35,225.35 0,124.46 -100.89,225.34 -225.35,225.34 -124.45,0 -225.34,-100.89 -225.34,-225.34 0,-124.46 100.89,-225.35 225.34,-225.35z"/>
  </g>
 </g>
</svg>
